<svg width="261" height="49" viewBox="0 0 261 49" fill="#ffb11a" xmlns="http://www.w3.org/2000/svg">
<g clip-path="url(#clip0)">
<path d="M79.1416 38.3908C76.4336 38.3908 73.9786 37.8091 71.7767 36.6458C69.6001 35.4571 67.8791 33.8259 66.6136 31.7521C65.3735 29.653 64.7534 27.2884 64.7534 24.6582C64.7534 22.028 65.3735 19.676 66.6136 17.6022C67.8791 15.5031 69.6001 13.8719 71.7767 12.7085C73.9786 11.5199 76.4462 10.9255 79.1796 10.9255C81.4827 10.9255 83.5581 11.3302 85.4056 12.1395C87.2785 12.9488 88.8477 14.1121 90.1131 15.6295L86.1649 19.2713C84.368 17.1975 82.1408 16.1606 79.4833 16.1606C77.8382 16.1606 76.3703 16.5273 75.0795 17.2608C73.7888 17.9689 72.7764 18.9679 72.0424 20.2577C71.3338 21.5475 70.9795 23.0143 70.9795 24.6582C70.9795 26.3021 71.3338 27.7689 72.0424 29.0587C72.7764 30.3485 73.7888 31.3601 75.0795 32.0935C76.3703 32.8017 77.8382 33.1557 79.4833 33.1557C82.1408 33.1557 84.368 32.1062 86.1649 30.0071L90.1131 33.6489C88.8477 35.1916 87.2785 36.3676 85.4056 37.1769C83.5328 37.9862 81.4448 38.3908 79.1416 38.3908ZM99.5053 20.2197C100.214 19.2334 101.163 18.4873 102.353 17.9815C103.567 17.4757 104.959 17.2228 106.529 17.2228V22.6855C105.871 22.635 105.428 22.6097 105.2 22.6097C103.504 22.6097 102.175 23.0902 101.214 24.0512C100.252 24.987 99.7711 26.4032 99.7711 28.3V37.9356H93.8488V17.5263H99.5053V20.2197ZM131.027 17.5263L121.802 39.1875C120.865 41.5395 119.701 43.196 118.309 44.157C116.943 45.118 115.285 45.5986 113.336 45.5986C112.273 45.5986 111.223 45.4342 110.185 45.1054C109.147 44.7766 108.299 44.3214 107.641 43.7397L109.805 39.5289C110.261 39.9335 110.78 40.2497 111.362 40.4773C111.969 40.7049 112.564 40.8187 113.146 40.8187C113.956 40.8187 114.614 40.6164 115.12 40.2117C115.626 39.8324 116.082 39.1875 116.487 38.277L116.563 38.0873L107.717 17.5263H113.829L119.562 31.3728L125.332 17.5263H131.027ZM145.516 17.2228C147.414 17.2228 149.135 17.6654 150.679 18.5506C152.248 19.4104 153.476 20.637 154.362 22.2303C155.247 23.7983 155.69 25.6319 155.69 27.731C155.69 29.8301 155.247 31.6762 154.362 33.2695C153.476 34.8375 152.248 36.0641 150.679 36.9493C149.135 37.8091 147.414 38.2391 145.516 38.2391C142.909 38.2391 140.859 37.4171 139.366 35.7733V45.2951H133.444V17.5263H139.1V19.8783C140.568 18.108 142.707 17.2228 145.516 17.2228ZM144.491 33.3833C146.01 33.3833 147.25 32.8775 148.211 31.8659C149.198 30.829 149.692 29.4507 149.692 27.731C149.692 26.0112 149.198 24.6455 148.211 23.6339C147.25 22.597 146.01 22.0786 144.491 22.0786C142.972 22.0786 141.72 22.597 140.733 23.6339C139.771 24.6455 139.29 26.0112 139.29 27.731C139.29 29.4507 139.771 30.829 140.733 31.8659C141.72 32.8775 142.972 33.3833 144.491 33.3833ZM172.828 36.9493C172.246 37.3792 171.525 37.708 170.664 37.9356C169.829 38.1379 168.943 38.2391 168.007 38.2391C165.577 38.2391 163.691 37.6195 162.35 36.3802C161.034 35.141 160.376 33.3201 160.376 30.9175V22.5338H157.225V17.9815H160.376V13.012H166.298V17.9815H171.385V22.5338H166.298V30.8417C166.298 31.7015 166.513 32.3717 166.944 32.8522C167.399 33.3075 168.032 33.5351 168.842 33.5351C169.778 33.5351 170.575 33.2822 171.234 32.7764L172.828 36.9493ZM188.882 36.9493C188.3 37.3792 187.578 37.708 186.718 37.9356C185.883 38.1379 184.997 38.2391 184.06 38.2391C181.631 38.2391 179.745 37.6195 178.404 36.3802C177.088 35.141 176.43 33.3201 176.43 30.9175V22.5338H173.279V17.9815H176.43V13.012H182.352V17.9815H187.439V22.5338H182.352V30.8417C182.352 31.7015 182.567 32.3717 182.997 32.8522C183.453 33.3075 184.086 33.5351 184.896 33.5351C185.832 33.5351 186.629 33.2822 187.287 32.7764L188.882 36.9493ZM201.294 38.2391C199.143 38.2391 197.207 37.7965 195.486 36.9113C193.79 36.0009 192.462 34.749 191.5 33.1557C190.538 31.5624 190.057 29.7542 190.057 27.731C190.057 25.7077 190.538 23.8995 191.5 22.3062C192.462 20.7129 193.79 19.4737 195.486 18.5885C197.207 17.6781 199.143 17.2228 201.294 17.2228C203.446 17.2228 205.369 17.6781 207.065 18.5885C208.761 19.4737 210.089 20.7129 211.051 22.3062C212.013 23.8995 212.494 25.7077 212.494 27.731C212.494 29.7542 212.013 31.5624 211.051 33.1557C210.089 34.749 208.761 36.0009 207.065 36.9113C205.369 37.7965 203.446 38.2391 201.294 38.2391ZM201.294 33.3833C202.813 33.3833 204.053 32.8775 205.015 31.8659C206.002 30.829 206.495 29.4507 206.495 27.731C206.495 26.0112 206.002 24.6455 205.015 23.6339C204.053 22.597 202.813 22.0786 201.294 22.0786C199.776 22.0786 198.523 22.597 197.536 23.6339C196.549 24.6455 196.055 26.0112 196.055 27.731C196.055 29.4507 196.549 30.829 197.536 31.8659C198.523 32.8775 199.776 33.3833 201.294 33.3833ZM228.524 17.2228C230.422 17.2228 232.143 17.6654 233.687 18.5506C235.256 19.4104 236.484 20.637 237.369 22.2303C238.255 23.7983 238.698 25.6319 238.698 27.731C238.698 29.8301 238.255 31.6762 237.369 33.2695C236.484 34.8375 235.256 36.0641 233.687 36.9493C232.143 37.8091 230.422 38.2391 228.524 38.2391C225.917 38.2391 223.867 37.4171 222.374 35.7733V45.2951H216.451V17.5263H222.108V19.8783C223.576 18.108 225.714 17.2228 228.524 17.2228ZM227.499 33.3833C229.017 33.3833 230.257 32.8775 231.219 31.8659C232.206 30.829 232.7 29.4507 232.7 27.731C232.7 26.0112 232.206 24.6455 231.219 23.6339C230.257 22.597 229.017 22.0786 227.499 22.0786C225.98 22.0786 224.727 22.597 223.74 23.6339C222.779 24.6455 222.298 26.0112 222.298 27.731C222.298 29.4507 222.779 30.829 223.74 31.8659C224.727 32.8775 225.98 33.3833 227.499 33.3833ZM249.535 38.2391C247.839 38.2391 246.182 38.0368 244.562 37.6321C242.942 37.2022 241.651 36.6711 240.69 36.0388L242.664 31.79C243.575 32.3717 244.676 32.8522 245.967 33.2316C247.257 33.5857 248.523 33.7627 249.763 33.7627C252.268 33.7627 253.521 33.1431 253.521 31.9039C253.521 31.3222 253.18 30.9049 252.496 30.652C251.813 30.3991 250.763 30.1841 249.345 30.0071C247.675 29.7542 246.296 29.4633 245.207 29.1346C244.119 28.8058 243.17 28.2241 242.36 27.3895C241.575 26.555 241.183 25.3663 241.183 23.8236C241.183 22.5338 241.55 21.3957 242.284 20.4094C243.043 19.3978 244.132 18.6138 245.549 18.0574C246.992 17.501 248.687 17.2228 250.636 17.2228C252.079 17.2228 253.509 17.3872 254.926 17.716C256.369 18.0195 257.558 18.4494 258.495 19.0058L256.52 23.2166C254.723 22.205 252.762 21.6992 250.636 21.6992C249.371 21.6992 248.421 21.8762 247.789 22.2303C247.156 22.5844 246.84 23.0396 246.84 23.596C246.84 24.2282 247.181 24.6708 247.865 24.9237C248.548 25.1766 249.636 25.4169 251.13 25.6445C252.8 25.9227 254.167 26.2262 255.23 26.555C256.293 26.8584 257.216 27.4275 258.001 28.262C258.786 29.0966 259.178 30.26 259.178 31.7521C259.178 33.0166 258.798 34.1421 258.039 35.1284C257.28 36.1147 256.166 36.886 254.698 37.4424C253.256 37.9735 251.535 38.2391 249.535 38.2391Z" fill="#673BB7"/>
<path d="M52.9911 22.129C52.9911 20.8196 51.9288 19.7581 50.6183 19.7581C49.3079 19.7581 48.2456 20.8196 48.2456 22.129V26.871C48.2456 28.1804 49.3079 29.2419 50.6183 29.2419C51.9288 29.2419 52.9911 28.1804 52.9911 26.871V22.129Z" stroke="#E83E8C" stroke-width="2"/>
<path d="M43.4998 12.6451C43.4998 11.3357 42.4375 10.2742 41.1271 10.2742C39.8167 10.2742 38.7544 11.3357 38.7544 12.6451V36.3548C38.7544 37.6643 39.8167 38.7258 41.1271 38.7258C42.4375 38.7258 43.4998 37.6643 43.4998 36.3548V12.6451Z" stroke="#E83E8C" stroke-width="2"/>
<path d="M34.0091 3.16125C34.0091 1.8518 32.9468 0.790283 31.6364 0.790283C30.326 0.790283 29.2637 1.8518 29.2637 3.16125V45.8387C29.2637 47.1481 30.326 48.2096 31.6364 48.2096C32.9468 48.2096 34.0091 47.1481 34.0091 45.8387V3.16125Z" stroke="#E83E8C" stroke-width="2"/>
<path d="M21.3548 3.16138L3.4197 21.0832C1.54171 22.9597 1.57051 26.011 3.48359 27.852L21.3548 45.0485" stroke="#673BB7" stroke-width="2.5" stroke-linecap="round"/>
</g>
<defs>
<clipPath id="clip0">
<rect width="261" height="49" fill="white"/>
</clipPath>
</defs>
</svg>
